<svg xmlns="http://www.w3.org/2000/svg" viewBox="0 0 920 120" fill="none">
  <defs>
    <linearGradient id="g" x1="0%" y1="0%" x2="100%" y2="0%">
      <stop offset="0%" stop-color="#fbbf24"/>
      <stop offset="100%" stop-color="#dc2626"/>
    </linearGradient>
  </defs>
  <rect width="920" height="120" rx="12" fill="#0a0505" stroke="#fbbf24" stroke-opacity="0.35"/>
  <rect x="20" y="30" width="130" height="60" rx="8" fill="#1a1208" stroke="#fbbf24" stroke-opacity="0.5"/>
  <text x="85" y="55" text-anchor="middle" fill="#fde68a" font-size="13" font-family="sans-serif" font-weight="600">需求确认</text>
  <text x="85" y="74" text-anchor="middle" fill="#fcd34d" font-size="10" font-family="sans-serif" opacity="0.7">书面确认单</text>
  <path d="M155 60 H175" stroke="#fbbf24" stroke-opacity="0.6" stroke-width="2"/>
  <rect x="180" y="30" width="130" height="60" rx="8" fill="#1a1208" stroke="#fbbf24" stroke-opacity="0.5"/>
  <text x="245" y="55" text-anchor="middle" fill="#fde68a" font-size="13" font-family="sans-serif" font-weight="600">规则配置</text>
  <text x="245" y="74" text-anchor="middle" fill="#fcd34d" font-size="10" font-family="sans-serif" opacity="0.7">JSON 驱动</text>
  <path d="M315 60 H335" stroke="#fbbf24" stroke-opacity="0.6" stroke-width="2"/>
  <rect x="340" y="30" width="100" height="60" rx="8" fill="#1a1208" stroke="#fbbf24" stroke-opacity="0.5"/>
  <text x="390" y="55" text-anchor="middle" fill="#fde68a" font-size="13" font-family="sans-serif" font-weight="600">开发</text>
  <text x="390" y="74" text-anchor="middle" fill="#fcd34d" font-size="10" font-family="sans-serif" opacity="0.7">API+前端</text>
  <path d="M445 60 H465" stroke="#fbbf24" stroke-opacity="0.6" stroke-width="2"/>
  <rect x="470" y="30" width="100" height="60" rx="8" fill="#1a1208" stroke="#fbbf24" stroke-opacity="0.5"/>
  <text x="520" y="55" text-anchor="middle" fill="#fde68a" font-size="13" font-family="sans-serif" font-weight="600">部署</text>
  <text x="520" y="74" text-anchor="middle" fill="#fcd34d" font-size="10" font-family="sans-serif" opacity="0.7">Fork隔离</text>
  <path d="M575 60 H595" stroke="#fbbf24" stroke-opacity="0.6" stroke-width="2"/>
  <rect x="600" y="30" width="100" height="60" rx="8" fill="#1a1208" stroke="#fbbf24" stroke-opacity="0.5"/>
  <text x="650" y="55" text-anchor="middle" fill="#fde68a" font-size="13" font-family="sans-serif" font-weight="600">验收</text>
  <text x="650" y="74" text-anchor="middle" fill="#fcd34d" font-size="10" font-family="sans-serif" opacity="0.7">压测清数</text>
  <path d="M705 60 H725" stroke="#fbbf24" stroke-opacity="0.6" stroke-width="2"/>
  <rect x="730" y="30" width="170" height="60" rx="8" fill="#1a1208" stroke="#fbbf24" stroke-opacity="0.7"/>
  <text x="815" y="55" text-anchor="middle" fill="#fef3c7" font-size="13" font-family="sans-serif" font-weight="700">交付</text>
  <text x="815" y="74" text-anchor="middle" fill="#fde68a" font-size="10" font-family="sans-serif" opacity="0.85">系统+导出+文档</text>
</svg>
